<svg viewBox="0 0 106 174" fill="none" xmlns="http://www.w3.org/2000/svg">
    <g filter="url(#filter0_iii_109_5)">
        <path
            d="M0 2C0 0.895435 0.895431 0 2 0H104C105.105 0 106 0.895431 106 2V153C106 164.598 96.598 174 85 174H2C0.895429 174 0 173.105 0 172V2Z"
            fill="#EAE7E9" />
        <path
            d="M0 2C0 0.895435 0.895431 0 2 0H104C105.105 0 106 0.895431 106 2V153C106 164.598 96.598 174 85 174H2C0.895429 174 0 173.105 0 172V2Z"
            fill="url(#paint0_linear_109_5)" fill-opacity="0.2" />
    </g>
    <g filter="url(#filter1_i_109_5)">
        <path d="M0 7H7V0H9V7H97V0H99V7H106V9H0V7Z" fill="#D9D9D9" fill-opacity="0.01" />
    </g>
    <path
        d="M8 17C8 14.7909 9.79086 13 12 13H94C96.2091 13 98 14.7909 98 17V68C98 75.732 91.732 82 84 82H12C9.79086 82 8 80.2091 8 78V17Z"
        fill="#727387" />
    <path d="M12 16.5H35.5M83.5 16.5H94" stroke="#88214E" stroke-width="0.5" />
    <path d="M12 18.5H35.5M83.5 18.5H94" stroke="#2B1950" stroke-width="0.5" />
    <path
        d="M38.3125 18.5H37.729V16.6091H38.3384C38.5218 16.6091 38.6787 16.6469 38.8092 16.7227C38.9397 16.7978 39.0397 16.9058 39.1093 17.0467C39.1789 17.1871 39.2136 17.3551 39.2136 17.5509C39.2136 17.7478 39.1786 17.9174 39.1084 18.0596C39.0382 18.2012 38.936 18.3101 38.8018 18.3864C38.6677 18.4621 38.5045 18.5 38.3125 18.5ZM37.958 18.2969H38.2977C38.4541 18.2969 38.5836 18.2667 38.6864 18.2064C38.7892 18.1461 38.8659 18.0602 38.9163 17.9488C38.9668 17.8374 38.992 17.7047 38.992 17.5509C38.992 17.3982 38.9671 17.2668 38.9173 17.1566C38.8674 17.0458 38.7929 16.9609 38.6938 16.9018C38.5947 16.8421 38.4713 16.8122 38.3236 16.8122H37.958V18.2969ZM41.1932 17.5545C41.1932 17.754 41.1572 17.9263 41.0852 18.0716C41.0131 18.2169 40.9143 18.3289 40.7888 18.4077C40.6632 18.4865 40.5198 18.5259 40.3585 18.5259C40.1973 18.5259 40.0538 18.4865 39.9283 18.4077C39.8027 18.3289 39.7039 18.2169 39.6319 18.0716C39.5599 17.9263 39.5239 17.754 39.5239 17.5545C39.5239 17.3551 39.5599 17.1828 39.6319 17.0375C39.7039 16.8922 39.8027 16.7802 39.9283 16.7014C40.0538 16.6226 40.1973 16.5832 40.3585 16.5832C40.5198 16.5832 40.6632 16.6226 40.7888 16.7014C40.9143 16.7802 41.0131 16.8922 41.0852 17.0375C41.1572 17.1828 41.1932 17.3551 41.1932 17.5545ZM40.9716 17.5545C40.9716 17.3908 40.9442 17.2526 40.8894 17.14C40.8353 17.0273 40.7617 16.9421 40.6687 16.8842C40.5764 16.8264 40.473 16.7974 40.3585 16.7974C40.244 16.7974 40.1403 16.8264 40.0474 16.8842C39.955 16.9421 39.8815 17.0273 39.8267 17.14C39.7725 17.2526 39.7455 17.3908 39.7455 17.5545C39.7455 17.7183 39.7725 17.8565 39.8267 17.9691C39.8815 18.0817 39.955 18.167 40.0474 18.2249C40.1403 18.2827 40.244 18.3116 40.3585 18.3116C40.473 18.3116 40.5764 18.2827 40.6687 18.2249C40.7617 18.167 40.8353 18.0817 40.8894 17.9691C40.9442 17.8565 40.9716 17.7183 40.9716 17.5545ZM41.3961 16.8122V16.6091H42.8143V16.8122H42.2197V18.5H41.9907V16.8122H41.3961ZM43.8989 16.6091H44.1722L44.8148 18.1787H44.837L45.4796 16.6091H45.7529V18.5H45.5387V17.0634H45.5202L44.9293 18.5H44.7225L44.1316 17.0634H44.1131V18.5H43.8989V16.6091ZM46.2895 18.5H46.0495L46.7438 16.6091H46.9802L47.6745 18.5H47.4344L46.8694 16.9082H46.8546L46.2895 18.5ZM46.3782 17.7614H47.3458V17.9645H46.3782V17.7614ZM47.6447 16.8122V16.6091H49.0629V16.8122H48.4683V18.5H48.2393V16.8122H47.6447ZM49.4163 18.5V16.6091H50.0552C50.2029 16.6091 50.3242 16.6343 50.419 16.6848C50.5138 16.7347 50.5839 16.8033 50.6295 16.8907C50.675 16.9781 50.6978 17.0775 50.6978 17.1889C50.6978 17.3003 50.675 17.3991 50.6295 17.4853C50.5839 17.5715 50.5141 17.6392 50.4199 17.6884C50.3257 17.7371 50.2054 17.7614 50.0589 17.7614H49.5418V17.5545H50.0515C50.1525 17.5545 50.2337 17.5398 50.2953 17.5102C50.3574 17.4807 50.4024 17.4388 50.4301 17.3847C50.4584 17.3299 50.4725 17.2646 50.4725 17.1889C50.4725 17.1132 50.4584 17.047 50.4301 16.9904C50.4017 16.9338 50.3565 16.8901 50.2943 16.8593C50.2322 16.8279 50.15 16.8122 50.0478 16.8122H49.6453V18.5H49.4163ZM50.3063 17.6506L50.7717 18.5H50.5058L50.0478 17.6506H50.3063ZM51.3083 16.6091V18.5H51.0794V16.6091H51.3083ZM51.8782 16.6091L52.3657 17.3957H52.3805L52.868 16.6091H53.1376L52.543 17.5545L53.1376 18.5H52.868L52.3805 17.7281H52.3657L51.8782 18.5H51.6086L52.218 17.5545L51.6086 16.6091H51.8782ZM54.5103 18.5L53.9933 16.6091H54.226L54.6211 18.1491H54.6396L55.0422 16.6091H55.3007L55.7032 18.1491H55.7217L56.1169 16.6091H56.3495L55.8325 18.5H55.5961L55.1788 16.9932H55.164L54.7467 18.5H54.5103ZM56.8638 16.6091V18.5H56.6348V16.6091H56.8638ZM57.2195 16.8122V16.6091H58.6377V16.8122H58.0431V18.5H57.8141V16.8122H57.2195ZM58.9911 18.5V16.6091H59.2201V17.4511H60.2283V16.6091H60.4573V18.5H60.2283V17.6543H59.2201V18.5H58.9911ZM62.681 17.0818C62.67 16.9883 62.625 16.9156 62.5462 16.8639C62.4674 16.8122 62.3708 16.7864 62.2563 16.7864C62.1726 16.7864 62.0994 16.7999 62.0366 16.827C61.9744 16.8541 61.9258 16.8913 61.8907 16.9387C61.8562 16.9861 61.839 17.04 61.839 17.1003C61.839 17.1508 61.851 17.1942 61.875 17.2305C61.8996 17.2662 61.931 17.296 61.9692 17.32C62.0073 17.3434 62.0473 17.3628 62.0892 17.3782C62.1311 17.393 62.1695 17.405 62.2046 17.4142L62.3967 17.4659C62.4459 17.4788 62.5007 17.4967 62.561 17.5195C62.6219 17.5422 62.6801 17.5733 62.7355 17.6127C62.7915 17.6515 62.8377 17.7013 62.874 17.7623C62.9103 17.8232 62.9285 17.898 62.9285 17.9866C62.9285 18.0888 62.9017 18.1812 62.8482 18.2636C62.7952 18.3461 62.7177 18.4117 62.6155 18.4603C62.5139 18.5089 62.3905 18.5332 62.2452 18.5332C62.1098 18.5332 61.9926 18.5114 61.8935 18.4677C61.795 18.424 61.7174 18.363 61.6608 18.2849C61.6048 18.2067 61.5731 18.1159 61.5657 18.0125H61.8021C61.8082 18.0839 61.8322 18.143 61.8741 18.1898C61.9165 18.2359 61.9701 18.2704 62.0347 18.2932C62.1 18.3153 62.1701 18.3264 62.2452 18.3264C62.3326 18.3264 62.4111 18.3123 62.4807 18.2839C62.5502 18.255 62.6053 18.215 62.646 18.1639C62.6866 18.1122 62.7069 18.0519 62.7069 17.983C62.7069 17.9202 62.6893 17.8691 62.6543 17.8297C62.6192 17.7903 62.573 17.7583 62.5158 17.7337C62.4585 17.709 62.3967 17.6875 62.3302 17.669L62.0975 17.6026C61.9498 17.5601 61.8328 17.4995 61.7467 17.4207C61.6605 17.3419 61.6174 17.2388 61.6174 17.1114C61.6174 17.0055 61.646 16.9132 61.7033 16.8344C61.7611 16.755 61.8387 16.6934 61.9359 16.6497C62.0338 16.6054 62.1431 16.5832 62.2637 16.5832C62.3856 16.5832 62.4939 16.6051 62.5887 16.6488C62.6835 16.6919 62.7586 16.751 62.814 16.8261C62.87 16.9012 62.8996 16.9864 62.9026 17.0818H62.681ZM63.2015 16.8122V16.6091H64.6197V16.8122H64.0251V18.5H63.7961V16.8122H63.2015ZM64.9731 18.5V16.6091H66.1143V16.8122H65.2021V17.4511H66.0552V17.6543H65.2021V18.2969H66.1291V18.5H64.9731ZM66.527 18.5V16.6091H67.1659C67.3137 16.6091 67.4349 16.6343 67.5297 16.6848C67.6245 16.7347 67.6947 16.8033 67.7402 16.8907C67.7858 16.9781 67.8086 17.0775 67.8086 17.1889C67.8086 17.3003 67.7858 17.3991 67.7402 17.4853C67.6947 17.5715 67.6248 17.6392 67.5306 17.6884C67.4365 17.7371 67.3161 17.7614 67.1696 17.7614H66.6526V17.5545H67.1623C67.2632 17.5545 67.3444 17.5398 67.406 17.5102C67.4682 17.4807 67.5131 17.4388 67.5408 17.3847C67.5691 17.3299 67.5833 17.2646 67.5833 17.1889C67.5833 17.1132 67.5691 17.047 67.5408 16.9904C67.5125 16.9338 67.4672 16.8901 67.4051 16.8593C67.3429 16.8279 67.2607 16.8122 67.1586 16.8122H66.756V18.5H66.527ZM67.4171 17.6506L67.8824 18.5H67.6165L67.1586 17.6506H67.4171ZM68.1901 18.5V16.6091H69.3313V16.8122H68.4191V17.4511H69.2722V17.6543H68.4191V18.2969H69.3461V18.5H68.1901ZM71.3395 17.5545C71.3395 17.754 71.3035 17.9263 71.2314 18.0716C71.1594 18.2169 71.0606 18.3289 70.9351 18.4077C70.8095 18.4865 70.6661 18.5259 70.5048 18.5259C70.3435 18.5259 70.2001 18.4865 70.0746 18.4077C69.949 18.3289 69.8502 18.2169 69.7782 18.0716C69.7062 17.9263 69.6702 17.754 69.6702 17.5545C69.6702 17.3551 69.7062 17.1828 69.7782 17.0375C69.8502 16.8922 69.949 16.7802 70.0746 16.7014C70.2001 16.6226 70.3435 16.5832 70.5048 16.5832C70.6661 16.5832 70.8095 16.6226 70.9351 16.7014C71.0606 16.7802 71.1594 16.8922 71.2314 17.0375C71.3035 17.1828 71.3395 17.3551 71.3395 17.5545ZM71.1179 17.5545C71.1179 17.3908 71.0905 17.2526 71.0357 17.14C70.9815 17.0273 70.908 16.9421 70.815 16.8842C70.7227 16.8264 70.6193 16.7974 70.5048 16.7974C70.3903 16.7974 70.2866 16.8264 70.1937 16.8842C70.1013 16.9421 70.0278 17.0273 69.973 17.14C69.9188 17.2526 69.8917 17.3908 69.8917 17.5545C69.8917 17.7183 69.9188 17.8565 69.973 17.9691C70.0278 18.0817 70.1013 18.167 70.1937 18.2249C70.2866 18.2827 70.3903 18.3116 70.5048 18.3116C70.6193 18.3116 70.7227 18.2827 70.815 18.2249C70.908 18.167 70.9815 18.0817 71.0357 17.9691C71.0905 17.8565 71.1179 17.7183 71.1179 17.5545ZM73.4898 17.0818C73.4787 16.9883 73.4338 16.9156 73.355 16.8639C73.2762 16.8122 73.1796 16.7864 73.0651 16.7864C72.9814 16.7864 72.9081 16.7999 72.8454 16.827C72.7832 16.8541 72.7346 16.8913 72.6995 16.9387C72.665 16.9861 72.6478 17.04 72.6478 17.1003C72.6478 17.1508 72.6598 17.1942 72.6838 17.2305C72.7084 17.2662 72.7398 17.296 72.778 17.32C72.8161 17.3434 72.8561 17.3628 72.898 17.3782C72.9398 17.393 72.9783 17.405 73.0134 17.4142L73.2055 17.4659C73.2547 17.4788 73.3095 17.4967 73.3698 17.5195C73.4307 17.5422 73.4889 17.5733 73.5443 17.6127C73.6003 17.6515 73.6465 17.7013 73.6828 17.7623C73.7191 17.8232 73.7373 17.898 73.7373 17.9866C73.7373 18.0888 73.7105 18.1812 73.6569 18.2636C73.604 18.3461 73.5264 18.4117 73.4243 18.4603C73.3227 18.5089 73.1993 18.5332 73.054 18.5332C72.9186 18.5332 72.8014 18.5114 72.7023 18.4677C72.6038 18.424 72.5262 18.363 72.4696 18.2849C72.4136 18.2067 72.3819 18.1159 72.3745 18.0125H72.6108C72.617 18.0839 72.641 18.143 72.6829 18.1898C72.7253 18.2359 72.7789 18.2704 72.8435 18.2932C72.9088 18.3153 72.9789 18.3264 73.054 18.3264C73.1414 18.3264 73.2199 18.3123 73.2895 18.2839C73.359 18.255 73.4141 18.215 73.4547 18.1639C73.4954 18.1122 73.5157 18.0519 73.5157 17.983C73.5157 17.9202 73.4981 17.8691 73.463 17.8297C73.428 17.7903 73.3818 17.7583 73.3246 17.7337C73.2673 17.709 73.2055 17.6875 73.139 17.669L72.9063 17.6026C72.7586 17.5601 72.6416 17.4995 72.5555 17.4207C72.4693 17.3419 72.4262 17.2388 72.4262 17.1114C72.4262 17.0055 72.4548 16.9132 72.5121 16.8344C72.5699 16.755 72.6475 16.6934 72.7447 16.6497C72.8426 16.6054 72.9519 16.5832 73.0725 16.5832C73.1944 16.5832 73.3027 16.6051 73.3975 16.6488C73.4923 16.6919 73.5674 16.751 73.6228 16.8261C73.6788 16.9012 73.7083 16.9864 73.7114 17.0818H73.4898ZM75.7092 17.5545C75.7092 17.754 75.6732 17.9263 75.6012 18.0716C75.5292 18.2169 75.4304 18.3289 75.3048 18.4077C75.1792 18.4865 75.0358 18.5259 74.8745 18.5259C74.7133 18.5259 74.5699 18.4865 74.4443 18.4077C74.3187 18.3289 74.2199 18.2169 74.1479 18.0716C74.0759 17.9263 74.0399 17.754 74.0399 17.5545C74.0399 17.3551 74.0759 17.1828 74.1479 17.0375C74.2199 16.8922 74.3187 16.7802 74.4443 16.7014C74.5699 16.6226 74.7133 16.5832 74.8745 16.5832C75.0358 16.5832 75.1792 16.6226 75.3048 16.7014C75.4304 16.7802 75.5292 16.8922 75.6012 17.0375C75.6732 17.1828 75.7092 17.3551 75.7092 17.5545ZM75.4876 17.5545C75.4876 17.3908 75.4602 17.2526 75.4054 17.14C75.3513 17.0273 75.2777 16.9421 75.1848 16.8842C75.0924 16.8264 74.989 16.7974 74.8745 16.7974C74.76 16.7974 74.6563 16.8264 74.5634 16.8842C74.4711 16.9421 74.3975 17.0273 74.3427 17.14C74.2886 17.2526 74.2615 17.3908 74.2615 17.5545C74.2615 17.7183 74.2886 17.8565 74.3427 17.9691C74.3975 18.0817 74.4711 18.167 74.5634 18.2249C74.6563 18.2827 74.76 18.3116 74.8745 18.3116C74.989 18.3116 75.0924 18.2827 75.1848 18.2249C75.2777 18.167 75.3513 18.0817 75.4054 17.9691C75.4602 17.8565 75.4876 17.7183 75.4876 17.5545ZM77.3351 16.6091H77.5641V17.8611C77.5641 17.9903 77.5336 18.1058 77.4727 18.2073C77.4124 18.3083 77.3271 18.388 77.2169 18.4464C77.1068 18.5043 76.9775 18.5332 76.8292 18.5332C76.6808 18.5332 76.5516 18.5043 76.4414 18.4464C76.3312 18.388 76.2456 18.3083 76.1847 18.2073C76.1244 18.1058 76.0942 17.9903 76.0942 17.8611V16.6091H76.3232V17.8426C76.3232 17.9349 76.3435 18.0171 76.3841 18.0891C76.4248 18.1605 76.4826 18.2169 76.5577 18.2581C76.6334 18.2987 76.7239 18.319 76.8292 18.319C76.9344 18.319 77.0249 18.2987 77.1006 18.2581C77.1763 18.2169 77.2342 18.1605 77.2742 18.0891C77.3148 18.0171 77.3351 17.9349 77.3351 17.8426V16.6091ZM79.5208 16.6091V18.5H79.2992L78.2688 17.0153H78.2503V18.5H78.0214V16.6091H78.2429L79.277 18.0974H79.2955V16.6091H79.5208ZM80.5625 18.5H79.979V16.6091H80.5884C80.7718 16.6091 80.9287 16.6469 81.0592 16.7227C81.1897 16.7978 81.2897 16.9058 81.3593 17.0467C81.4289 17.1871 81.4636 17.3551 81.4636 17.5509C81.4636 17.7478 81.4286 17.9174 81.3584 18.0596C81.2882 18.2012 81.186 18.3101 81.0518 18.3864C80.9177 18.4621 80.7545 18.5 80.5625 18.5ZM80.208 18.2969H80.5477C80.7041 18.2969 80.8336 18.2667 80.9364 18.2064C81.0392 18.1461 81.1159 18.0602 81.1663 17.9488C81.2168 17.8374 81.242 17.7047 81.242 17.5509C81.242 17.3982 81.2171 17.2668 81.1673 17.1566C81.1174 17.0458 81.0429 16.9609 80.9438 16.9018C80.8447 16.8421 80.7213 16.8122 80.5736 16.8122H80.208V18.2969Z"
        fill="white" />
    <g filter="url(#filter2_d_109_5)">
        <rect x="13" y="38" width="3" height="3" rx="1.5" fill="#E11A14" />
    </g>
    <path
        d="M11.1454 46V44.3273H11.8151C11.9382 44.3273 12.0408 44.3455 12.123 44.382C12.2053 44.4185 12.2671 44.4691 12.3085 44.5339C12.3498 44.5982 12.3705 44.6722 12.3705 44.7561C12.3705 44.8214 12.3575 44.8789 12.3313 44.9284C12.3052 44.9774 12.2692 45.0177 12.2235 45.0493C12.1783 45.0803 12.1266 45.1024 12.0683 45.1154V45.1318C12.132 45.1345 12.1917 45.1525 12.2472 45.1857C12.3033 45.2189 12.3487 45.2655 12.3836 45.3254C12.4184 45.3847 12.4359 45.4555 12.4359 45.5377C12.4359 45.6265 12.4138 45.7057 12.3697 45.7754C12.3261 45.8445 12.2616 45.8993 12.1761 45.9396C12.0906 45.9799 11.9853 46 11.86 46H11.1454ZM11.499 45.7109H11.7874C11.8859 45.7109 11.9578 45.6921 12.003 45.6545C12.0482 45.6164 12.0708 45.5658 12.0708 45.5026C12.0708 45.4563 12.0596 45.4155 12.0373 45.3801C12.015 45.3447 11.9831 45.3169 11.9417 45.2968C11.9009 45.2766 11.8522 45.2665 11.7955 45.2665H11.499V45.7109ZM11.499 45.0272H11.7612C11.8097 45.0272 11.8527 45.0188 11.8903 45.0019C11.9284 44.9845 11.9583 44.96 11.9801 44.9284C12.0024 44.8968 12.0136 44.859 12.0136 44.8149C12.0136 44.7544 11.9921 44.7057 11.9491 44.6687C11.9066 44.6317 11.8462 44.6131 11.7678 44.6131H11.499V45.0272ZM12.9543 46H12.5753L13.1528 44.3273H13.6085L14.1852 46H13.8062L13.3872 44.7095H13.3741L12.9543 46ZM12.9306 45.3425H13.8258V45.6186H12.9306V45.3425ZM14.1184 44.6189V44.3273H15.4922V44.6189H14.9801V46H14.6305V44.6189H14.1184ZM15.6547 44.6189V44.3273H17.0285V44.6189H16.5164V46H16.1668V44.6189H15.6547ZM17.2548 46V44.3273H18.3819V44.6189H17.6084V45.0174H18.3239V45.309H17.6084V45.7084H18.3852V46H17.2548ZM18.6631 46V44.3273H19.323C19.4493 44.3273 19.5571 44.3499 19.6464 44.3951C19.7363 44.4397 19.8046 44.5031 19.8514 44.5854C19.8988 44.667 19.9225 44.7632 19.9225 44.8737C19.9225 44.9848 19.8985 45.0803 19.8506 45.1604C19.8027 45.2399 19.7333 45.3009 19.6424 45.3433C19.552 45.3858 19.4425 45.407 19.314 45.407H18.8721V45.1228H19.2568C19.3244 45.1228 19.3804 45.1135 19.4251 45.095C19.4697 45.0765 19.503 45.0487 19.5247 45.0117C19.5471 44.9747 19.5582 44.9287 19.5582 44.8737C19.5582 44.8181 19.5471 44.7713 19.5247 44.7332C19.503 44.6951 19.4695 44.6662 19.4243 44.6466C19.3796 44.6265 19.3233 44.6164 19.2552 44.6164H19.0167V46H18.6631ZM19.5664 45.2388L19.9821 46H19.5917L19.185 45.2388H19.5664ZM20.0048 44.3273H20.4009L20.7824 45.0477H20.7987L21.1801 44.3273H21.5762L20.9661 45.4087V46H20.6149V45.4087L20.0048 44.3273Z"
        fill="white" />
    <g filter="url(#filter3_i_109_5)">
        <path
            d="M94 143L101.5 156.5M83.1615 149L90.6615 162.5M89.1615 146L96.6615 159.5M78 152L85.5 165.5M67.1615 158L74.6615 171.5M73.1615 155L80.6615 168.5"
            stroke="black" stroke-opacity="0.01" stroke-width="2" stroke-linecap="round" />
    </g>
    <defs>
        <filter id="filter0_iii_109_5" x="-1" y="-1" width="108" height="176"
            filterUnits="userSpaceOnUse" color-interpolation-filters="sRGB">
            <feFlood flood-opacity="0" result="BackgroundImageFix" />
            <feBlend mode="normal" in="SourceGraphic" in2="BackgroundImageFix" result="shape" />
            <feColorMatrix in="SourceAlpha" type="matrix"
                values="0 0 0 0 0 0 0 0 0 0 0 0 0 0 0 0 0 0 127 0" result="hardAlpha" />
            <feOffset dx="-1" dy="1" />
            <feGaussianBlur stdDeviation="1.5" />
            <feComposite in2="hardAlpha" operator="arithmetic" k2="-1" k3="1" />
            <feColorMatrix type="matrix" values="0 0 0 0 1 0 0 0 0 1 0 0 0 0 1 0 0 0 1 0" />
            <feBlend mode="normal" in2="shape" result="effect1_innerShadow_109_5" />
            <feColorMatrix in="SourceAlpha" type="matrix"
                values="0 0 0 0 0 0 0 0 0 0 0 0 0 0 0 0 0 0 127 0" result="hardAlpha" />
            <feOffset dx="-1" dy="1" />
            <feGaussianBlur stdDeviation="1.5" />
            <feComposite in2="hardAlpha" operator="arithmetic" k2="-1" k3="1" />
            <feColorMatrix type="matrix" values="0 0 0 0 1 0 0 0 0 1 0 0 0 0 1 0 0 0 1 0" />
            <feBlend mode="normal" in2="effect1_innerShadow_109_5"
                result="effect2_innerShadow_109_5" />
            <feColorMatrix in="SourceAlpha" type="matrix"
                values="0 0 0 0 0 0 0 0 0 0 0 0 0 0 0 0 0 0 127 0" result="hardAlpha" />
            <feOffset dx="1" dy="-1" />
            <feGaussianBlur stdDeviation="1.5" />
            <feComposite in2="hardAlpha" operator="arithmetic" k2="-1" k3="1" />
            <feColorMatrix type="matrix" values="0 0 0 0 0 0 0 0 0 0 0 0 0 0 0 0 0 0 0.5 0" />
            <feBlend mode="normal" in2="effect2_innerShadow_109_5"
                result="effect3_innerShadow_109_5" />
        </filter>
        <filter id="filter1_i_109_5" x="0" y="0" width="106.5" height="9.5"
            filterUnits="userSpaceOnUse" color-interpolation-filters="sRGB">
            <feFlood flood-opacity="0" result="BackgroundImageFix" />
            <feBlend mode="normal" in="SourceGraphic" in2="BackgroundImageFix" result="shape" />
            <feColorMatrix in="SourceAlpha" type="matrix"
                values="0 0 0 0 0 0 0 0 0 0 0 0 0 0 0 0 0 0 127 0" result="hardAlpha" />
            <feOffset dx="0.5" dy="0.5" />
            <feGaussianBlur stdDeviation="1" />
            <feComposite in2="hardAlpha" operator="arithmetic" k2="-1" k3="1" />
            <feColorMatrix type="matrix" values="0 0 0 0 0 0 0 0 0 0 0 0 0 0 0 0 0 0 0.5 0" />
            <feBlend mode="normal" in2="shape" result="effect1_innerShadow_109_5" />
        </filter>
        <filter id="filter2_d_109_5" x="12" y="37" width="5" height="5" filterUnits="userSpaceOnUse"
            color-interpolation-filters="sRGB">
            <feFlood flood-opacity="0" result="BackgroundImageFix" />
            <feColorMatrix in="SourceAlpha" type="matrix"
                values="0 0 0 0 0 0 0 0 0 0 0 0 0 0 0 0 0 0 127 0" result="hardAlpha" />
            <feOffset />
            <feGaussianBlur stdDeviation="0.5" />
            <feComposite in2="hardAlpha" operator="out" />
            <feColorMatrix type="matrix"
                values="0 0 0 0 1 0 0 0 0 0.366667 0 0 0 0 0.366667 0 0 0 1 0" />
            <feBlend mode="normal" in2="BackgroundImageFix" result="effect1_dropShadow_109_5" />
            <feBlend mode="normal" in="SourceGraphic" in2="effect1_dropShadow_109_5" result="shape" />
        </filter>
        <filter id="filter3_i_109_5" x="65.9114" y="142" width="36.5888" height="31.0004"
            filterUnits="userSpaceOnUse" color-interpolation-filters="sRGB">
            <feFlood flood-opacity="0" result="BackgroundImageFix" />
            <feBlend mode="normal" in="SourceGraphic" in2="BackgroundImageFix" result="shape" />
            <feColorMatrix in="SourceAlpha" type="matrix"
                values="0 0 0 0 0 0 0 0 0 0 0 0 0 0 0 0 0 0 127 0" result="hardAlpha" />
            <feOffset dx="-0.25" dy="0.5" />
            <feGaussianBlur stdDeviation="0.75" />
            <feComposite in2="hardAlpha" operator="arithmetic" k2="-1" k3="1" />
            <feColorMatrix type="matrix" values="0 0 0 0 0 0 0 0 0 0 0 0 0 0 0 0 0 0 0.5 0" />
            <feBlend mode="normal" in2="shape" result="effect1_innerShadow_109_5" />
        </filter>
        <linearGradient id="paint0_linear_109_5" x1="101" y1="171" x2="93.1222" y2="156.762"
            gradientUnits="userSpaceOnUse">
            <stop />
            <stop offset="0.947917" stop-opacity="0.515625" />
            <stop offset="1" stop-opacity="0" />
        </linearGradient>
    </defs>
</svg>
    